<svg xmlns="http://www.w3.org/2000/svg" viewBox="0 0 392.398 392.398"><path d="M52.39 324.742c-3.649.682-6.39 3.678-7.718 8.432a6.002 6.002 0 01-7.393 4.166 5.969 5.969 0 01-2.495-1.41l-.007.008c-4.576-4.297-9.648-4.934-13.568-1.699-3.423 2.825-5.461 8.383-2.856 14.637h45.019c3.168-7.823 3.001-14.845-.565-19.613-2.579-3.447-6.663-5.224-10.417-4.521zM371.162 334.238c-3.919-3.234-8.992-2.6-13.568 1.699a6 6 0 01-8.48-.266c-.689-.733-1.131-1.6-1.382-2.507l-.031.009c-1.328-4.754-4.069-7.75-7.718-8.432-3.754-.703-7.838 1.072-10.416 4.52-3.566 4.769-3.733 11.79-.566 19.613h45.02c2.602-6.253.563-11.811-2.859-14.636zM140.745 287.894c-3.85-1.531-7.946-.152-11.536 3.887a5.999 5.999 0 01-10.096-1.869l-.015.006c-1.915-5.053-5.273-7.781-9.394-7.744-3.726.053-8.34 2.574-10.25 8.086-3.372 9.726 3.421 22.936 18.223 35.719 18.387-6.665 29.443-16.587 29.762-26.875.18-5.831-3.232-9.831-6.694-11.21zM147.988 127.238c.56-5.806-2.584-10.02-5.949-11.621-3.74-1.779-7.918-.67-11.764 3.125a5.998 5.998 0 01-8.484-.056 5.93 5.93 0 01-1.444-2.474l-.044.014c-1.582-5.168-4.732-8.131-8.87-8.342-3.727-.188-8.489 2.024-10.755 7.398-3.999 9.485 1.92 23.111 15.857 36.833 18.783-5.451 30.465-14.63 31.453-24.877zM180.516 88.838v115.021c0 8.648 7.036 15.683 15.684 15.683s15.684-7.035 15.684-15.683V88.838a2847.883 2847.883 0 01-31.368 0zM71.665 85.634c-13.688-.832-23.009-1.628-28.099-2.113-2.045 5.485-3.953 11.42-5.741 17.702 4.368 2.908 9.649 5.526 15.794 7.812 9.333-7.902 15.526-15.972 18.046-23.401zM346.779 71.664V44.15c-16.846 1.532-65.767 5.168-150.58 5.168S62.464 45.683 45.618 44.15v27.513c15.287 1.427 64.045 5.218 150.581 5.218 86.637 0 135.317-3.789 150.58-5.217zM338.762 109.034c6.151-2.288 11.437-4.91 15.808-7.821-1.787-6.278-3.694-12.21-5.738-17.692-5.092.485-14.416 1.282-28.113 2.114 2.518 7.429 8.711 15.499 18.043 23.399zM282.631 282.174h-.131c-4.082 0-7.369 2.744-9.264 7.744a6 6 0 01-7.737 3.484 5.972 5.972 0 01-2.503-1.8c-3.549-3.894-7.579-5.214-11.369-3.708-3.461 1.379-6.873 5.379-6.693 11.209.317 10.283 11.363 20.2 29.734 26.866 14.795-12.78 21.584-25.986 18.213-35.71-1.91-5.511-6.525-8.033-10.25-8.085zM352.023 249.6a5.999 5.999 0 01-8.422 1.029 5.952 5.952 0 01-1.859-2.471c-2.234-4.774-5.697-7.228-9.758-6.916-3.715.287-8.16 3.094-9.721 8.715-2.75 9.917 4.856 22.668 20.426 34.489 17.92-7.811 28.322-18.403 27.991-28.688-.189-5.83-3.846-9.605-7.388-10.764-3.939-1.287-7.94.35-11.269 4.606zM76.527 173.594c.782-5.779-2.198-10.111-5.498-11.84-3.672-1.92-7.889-.971-11.877 2.674a6 6 0 01-8.477-.381c-.678-.742-1.107-1.613-1.347-2.523l-.021.005c-1.382-5.223-4.416-8.303-8.543-8.673-3.713-.331-8.56 1.698-11.031 6.982-4.358 9.325 1.031 23.163 14.43 37.406 18.97-4.73 30.985-13.451 32.364-23.65zM70.107 249.957c-1.559-5.621-6.006-8.428-9.721-8.715-4.127-.32-7.633 2.213-9.861 7.135a6.001 6.001 0 01-7.941 2.99 5.973 5.973 0 01-2.254-1.778l-.014.011c-3.33-4.256-7.331-5.893-11.269-4.605-3.542 1.158-7.199 4.934-7.388 10.764-.331 10.289 10.079 20.887 28.011 28.698 15.578-11.825 23.189-24.582 20.437-34.5zM150.053 198.051c-4.142.105-7.365 2.988-9.076 8.111a5.998 5.998 0 01-7.591 3.793 5.969 5.969 0 01-2.419-1.531l-.006.006c-3.75-3.893-7.898-5.107-11.684-3.422-3.403 1.514-6.652 5.648-6.24 11.467.729 10.267 12.171 19.735 30.807 25.66 14.274-13.364 20.532-26.834 16.775-36.416-2.131-5.43-6.836-7.752-10.566-7.668zM351.619 152.856c-4.127.37-7.16 3.45-8.543 8.673a6.002 6.002 0 01-7.335 4.266 5.967 5.967 0 01-2.509-1.371l-.004.004c-3.989-3.645-8.207-4.598-11.878-2.672-3.3 1.727-6.28 6.059-5.499 11.838 1.38 10.199 13.398 18.922 32.37 23.651 13.397-14.243 18.788-28.082 14.429-37.407-2.468-5.283-7.314-7.311-11.031-6.982zM248.543 242.147c18.659-5.924 30.118-15.398 30.847-25.673.413-5.818-2.837-9.953-6.24-11.467-3.784-1.686-7.935-.471-11.684 3.422a6 6 0 01-8.483.156c-.729-.702-1.215-1.551-1.51-2.45l-.078.026c-1.711-5.123-4.934-8.006-9.075-8.111-3.714-.084-8.436 2.238-10.565 7.668-3.76 9.586 2.503 23.061 16.788 36.429zM280.904 107.897c-4.139.212-7.288 3.174-8.869 8.341a6 6 0 01-7.494 3.982 5.968 5.968 0 01-2.647-1.67c-3.79-3.636-7.886-4.684-11.561-2.933-3.365 1.601-6.508 5.815-5.949 11.62.988 10.244 12.663 19.42 31.438 24.873 13.926-13.716 19.836-27.334 15.839-36.814-2.268-5.374-7.038-7.577-10.757-7.399z" fill="#c94949"/><path d="M339.499 121.509a5.989 5.989 0 01-1.925.318l-.002-.01-.002.007a5.975 5.975 0 01-3.732-1.307c-16.708-13.299-23.218-25.248-25.42-34.193-20.719 1.067-48.766 2.069-84.535 2.423v106.692c4.478-5.966 11.398-9.591 18.746-9.385 6.763.174 12.586 3.466 16.543 9.088 5.993-3.381 12.671-3.852 18.857-1.098 8.688 3.867 14.044 13.223 13.33 23.279-.549 7.727-5.803 26.828-42.653 37.307-.548.156-1.1.23-1.643.23l-.016-.115-.043.113a5.972 5.972 0 01-3.961-1.496c-15.382-13.536-21.54-25.409-23.512-34.632-4.923 7.695-13.538 12.811-23.332 12.811-9.807 0-18.433-5.131-23.353-12.844-1.964 9.227-8.116 21.112-23.517 34.664a5.978 5.978 0 01-3.962 1.496l-.002-.005-.001.007a6.007 6.007 0 01-1.645-.23c-36.851-10.479-42.106-29.58-42.653-37.307-.714-10.057 4.644-19.412 13.33-23.279 6.172-2.748 12.835-2.285 18.818 1.076 3.957-5.608 9.774-8.894 16.528-9.066 7.355-.191 14.293 3.441 18.771 9.425V88.747c-35.781-.354-63.834-1.356-84.555-2.424-2.2 8.944-8.707 20.895-25.418 34.194a5.975 5.975 0 01-3.732 1.307l-.002-.007-.002.01a6.01 6.01 0 01-1.924-.318c-6.896-2.335-13.002-5.062-18.26-8.142-2.373 9.711-4.496 20.073-6.397 30.833 4.065-2.502 8.806-3.729 13.61-3.296 6.729.603 12.326 4.249 15.918 10.096 6.182-2.97 12.857-3.008 18.841.124 8.424 4.411 13.176 14.087 11.825 24.077-1.038 7.676-7.494 26.406-44.935 34.525a6.077 6.077 0 01-1.277.137v-.005a5.983 5.983 0 01-4.23-1.755c-7.613-7.61-12.715-14.602-16.045-20.876-2.076 17.249-3.72 34.695-5.02 51.484 2.367-2.298 5.211-4.079 8.408-5.124 6.425-2.101 13.01-.952 18.617 3.013 4.516-5.176 10.646-7.847 17.377-7.323 9.48.734 17.661 7.756 20.356 17.473 2.071 7.463 3.517 27.221-27.694 49.435a5.973 5.973 0 01-3.475 1.113l-.016-.047-.01.049c-.74 0-1.494-.139-2.225-.43-18.804-7.515-28.575-16.516-33.576-24.477a1816.022 1816.022 0 00-2.196 53.57c.356-.338.716-.673 1.092-.982 5.678-4.685 14.304-6.664 22.796-2.46 3.236-5.112 8.021-8.491 13.815-9.575 8.212-1.539 16.937 2.047 22.232 9.127 5.381 7.196 6.577 16.655 3.621 26.801h84.247l30.197-95.289a5.998 5.998 0 017.531-3.906 5.98 5.98 0 013.903 3.907l.005-.001 30.195 95.289h84.215c-2.952-10.146-1.754-19.605 3.627-26.799 5.296-7.082 14.022-10.668 22.232-9.129 5.795 1.084 10.579 4.463 13.816 9.574 8.491-4.203 17.117-2.223 22.795 2.461.384.316.755.653 1.119 1a1812.204 1812.204 0 00-2.201-53.671c-4.986 7.98-14.764 17.019-33.633 24.56a5.993 5.993 0 01-2.225.43l-.001-.003a5.963 5.963 0 01-3.464-1.112c-31.212-22.215-29.766-41.973-27.695-49.435 2.695-9.717 10.875-16.738 20.355-17.473 6.728-.52 12.852 2.145 17.365 7.31 5.603-3.953 12.181-5.096 18.598-2.999 3.226 1.054 6.092 2.856 8.471 5.184-1.301-16.813-2.945-34.286-5.026-51.562-3.329 6.279-8.434 13.276-16.054 20.894a5.984 5.984 0 01-4.236 1.755v.005c-.421 0-.848-.045-1.277-.137-37.441-8.119-43.898-26.85-44.936-34.525-1.352-9.99 3.4-19.666 11.823-24.076 5.985-3.136 12.663-3.096 18.847-.123 3.592-5.849 9.189-9.495 15.919-10.098 4.81-.429 9.556.802 13.625 3.309-1.905-10.776-4.031-21.154-6.409-30.879-5.255 3.089-11.349 5.833-18.261 8.174zM89.62 110.622c3.917-9.29 12.938-15.2 22.425-14.722 6.751.345 12.485 3.777 16.299 9.488 6.068-3.214 12.746-3.511 18.852-.607 8.586 4.086 13.705 13.573 12.737 23.609-.743 7.71-6.478 26.673-43.581 36.219a6.023 6.023 0 01-1.5.189l-.004-.035-.013.031a5.979 5.979 0 01-4.075-1.598c-28.112-26.027-24.149-45.437-21.14-52.574zm28.687 227.835a5.96 5.96 0 01-1.871.301l-.006-.037-.013.035a5.97 5.97 0 01-3.777-1.342c-29.749-24.141-27.06-43.768-24.522-51.086 3.302-9.525 11.908-16.018 21.416-16.152 6.745-.108 12.698 2.949 16.881 8.404 5.847-3.602 12.489-4.334 18.769-1.834 8.835 3.516 14.561 12.65 14.251 22.729-.241 7.742-4.726 27.037-41.128 38.982zm185.912-52.129c2.537 7.318 5.227 26.945-24.523 51.086a5.974 5.974 0 01-3.757 1.34l-.001.004a5.958 5.958 0 01-1.872-.301c-36.401-11.945-40.888-31.24-41.126-38.982-.312-10.078 5.415-19.213 14.25-22.729 6.271-2.496 12.903-1.771 18.743 1.816 4.175-5.436 10.114-8.478 16.87-8.387 9.508.135 18.113 6.628 21.416 16.153zm-22.643-123.119a5.972 5.972 0 01-4.074 1.598l-.004-.009a6.059 6.059 0 01-1.476-.188c-37.104-9.546-42.839-28.509-43.582-36.219-.969-10.035 4.15-19.523 12.736-23.608 6.098-2.901 12.769-2.608 18.833.597 3.814-5.697 9.542-9.122 16.284-9.466 9.495-.488 18.508 5.431 22.424 14.722 3.009 7.135 6.972 26.546-21.141 52.573z" fill="#eee"/><path d="M145.183 276.746c-6.279-2.5-12.922-1.768-18.769 1.834-4.183-5.455-10.136-8.513-16.881-8.404-9.508.135-18.114 6.627-21.416 16.152-2.537 7.318-5.227 26.945 24.522 51.086a5.976 5.976 0 003.777 1.342l.013-.035.006.037a5.96 5.96 0 001.871-.301c36.402-11.945 40.888-31.24 41.127-38.982.311-10.079-5.415-19.213-14.25-22.729zm-27.505 49.232c-14.802-12.783-21.595-25.993-18.223-35.719 1.91-5.512 6.524-8.033 10.25-8.086 4.12-.037 7.479 2.691 9.394 7.744l.015-.006a5.999 5.999 0 0010.096 1.869c3.59-4.039 7.686-5.418 11.536-3.887 3.462 1.379 6.874 5.379 6.694 11.209-.319 10.29-11.376 20.211-29.762 26.876zM110.76 163.197a5.984 5.984 0 004.075 1.598l.013-.031.004.035a6.07 6.07 0 001.5-.189c37.103-9.546 42.838-28.509 43.581-36.219.968-10.036-4.151-19.523-12.737-23.609-6.105-2.903-12.783-2.606-18.852.607-3.813-5.711-9.548-9.144-16.299-9.488-9.486-.479-18.508 5.432-22.425 14.722-3.009 7.136-6.972 26.546 21.14 52.574zm-10.082-47.914c2.266-5.374 7.028-7.586 10.755-7.398 4.138.211 7.288 3.174 8.87 8.342l.044-.014a5.936 5.936 0 001.444 2.474 5.999 5.999 0 008.484.056c3.846-3.795 8.023-4.904 11.764-3.125 3.365 1.602 6.509 5.815 5.949 11.621-.988 10.247-12.67 19.426-31.454 24.878-13.936-13.723-19.855-27.349-15.856-36.834zM282.803 270.176c-6.756-.092-12.695 2.95-16.87 8.387-5.84-3.587-12.473-4.312-18.743-1.816-8.835 3.516-14.562 12.65-14.25 22.729.238 7.742 4.725 27.037 41.126 38.982a5.958 5.958 0 001.872.301l.001-.004a5.97 5.97 0 003.757-1.34c29.75-24.141 27.061-43.768 24.523-51.086-3.303-9.526-11.908-16.019-21.416-16.153zm-8.135 55.794c-18.371-6.666-29.417-16.583-29.734-26.866-.18-5.83 3.232-9.83 6.693-11.209 3.79-1.506 7.82-.186 11.369 3.708a5.972 5.972 0 002.503 1.8 6 6 0 007.737-3.484c1.895-5 5.182-7.744 9.264-7.744h.131c3.726.053 8.34 2.574 10.25 8.086 3.371 9.722-3.418 22.928-18.213 35.709zM280.293 95.913c-6.742.344-12.471 3.769-16.284 9.466-6.064-3.205-12.735-3.498-18.833-.597-8.586 4.085-13.705 13.573-12.736 23.608.743 7.71 6.479 26.673 43.582 36.219a6.01 6.01 0 001.476.188l.004.009c1.458 0 2.92-.527 4.074-1.598 28.113-26.027 24.149-45.438 21.141-52.574-3.916-9.29-12.929-15.209-22.424-14.721zm-4.473 56.198c-18.774-5.453-30.449-14.629-31.438-24.873-.559-5.805 2.584-10.02 5.949-11.62 3.676-1.751 7.771-.703 11.561 2.933a5.974 5.974 0 002.647 1.67 6 6 0 007.494-3.982c1.581-5.167 4.73-8.129 8.869-8.341 3.719-.179 8.489 2.025 10.755 7.4 3.999 9.479-1.911 23.097-15.837 36.813z" fill="#751c35"/><path d="M358.779 37.523a6 6 0 00-6-6c-.239 0-50.374 5.795-156.58 5.795-106.065 0-156.342-5.795-156.581-5.795a6 6 0 00-6 6v38.41C.386 160.105 0 346.93 0 354.875c0 3.314 2.685 6 6 6h158.676a6.001 6.001 0 005.721-4.188l25.804-81.427 25.804 81.427a5.998 5.998 0 005.719 4.188H386.4a6 6 0 006-6c0-7.945-.385-194.77-33.619-278.941V37.523zm-4.21 63.69c-4.371 2.911-9.656 5.533-15.808 7.821-9.332-7.9-15.524-15.97-18.044-23.399 13.697-.832 23.021-1.629 28.113-2.114 2.045 5.482 3.952 11.414 5.739 17.692zM45.618 44.15c16.846 1.532 65.768 5.168 150.581 5.168s133.734-3.636 150.58-5.168v27.514c-15.264 1.428-63.943 5.217-150.58 5.217-86.536 0-135.294-3.791-150.581-5.218V44.15zm166.265 44.688v115.021c0 8.648-7.035 15.683-15.684 15.683-8.647 0-15.684-7.035-15.684-15.683V88.838a2848.158 2848.158 0 0031.368 0zM43.566 83.52c5.09.485 14.41 1.281 28.099 2.113-2.521 7.43-8.713 15.499-18.046 23.4-6.144-2.285-11.426-4.903-15.794-7.812 1.788-6.281 3.696-12.215 5.741-17.701zm19.805 265.355H18.353c-2.605-6.254-.566-11.812 2.856-14.637 3.92-3.234 8.992-2.598 13.568 1.699l.007-.008a5.964 5.964 0 002.495 1.41 6.003 6.003 0 007.393-4.166c1.328-4.754 4.068-7.75 7.718-8.432 3.754-.703 7.838 1.074 10.416 4.52 3.566 4.769 3.733 11.791.565 19.614zm310.649 0H329c-3.167-7.823-3-14.845.566-19.613 2.578-3.447 6.662-5.223 10.416-4.52 3.648.682 6.39 3.678 7.718 8.432l.031-.009a5.934 5.934 0 001.382 2.507 6.001 6.001 0 008.48.266c4.576-4.299 9.65-4.934 13.568-1.699 3.423 2.824 5.462 8.382 2.859 14.636zm-9.845-204.662c-4.069-2.507-8.815-3.737-13.625-3.309-6.729.603-12.327 4.249-15.919 10.098-6.184-2.973-12.861-3.013-18.847.123-8.423 4.41-13.175 14.086-11.823 24.076 1.037 7.676 7.494 26.406 44.936 34.525.43.092.856.137 1.277.137v-.005a5.984 5.984 0 004.236-1.755c7.62-7.617 12.725-14.614 16.054-20.894 2.081 17.275 3.725 34.748 5.026 51.562-2.379-2.327-5.245-4.13-8.471-5.184-6.417-2.097-12.994-.954-18.598 2.999-4.514-5.165-10.637-7.829-17.365-7.31-9.48.734-17.66 7.756-20.355 17.473-2.07 7.463-3.517 27.221 27.695 49.435a5.963 5.963 0 003.464 1.112l.001.003a6 6 0 002.225-.43c18.869-7.541 28.646-16.579 33.633-24.56a1812.204 1812.204 0 012.201 53.671 20.607 20.607 0 00-1.119-1c-5.678-4.684-14.304-6.664-22.795-2.461-3.237-5.111-8.021-8.49-13.816-9.574-8.21-1.539-16.936 2.047-22.232 9.129-5.381 7.194-6.579 16.653-3.627 26.799h-84.215l-30.195-95.289-.005.001a5.983 5.983 0 00-3.903-3.907 5.998 5.998 0 00-7.531 3.906l-30.197 95.289H76.036c2.956-10.146 1.76-19.605-3.621-26.801-5.296-7.08-14.021-10.666-22.232-9.127-5.795 1.084-10.579 4.463-13.815 9.575-8.492-4.204-17.118-2.225-22.796 2.46-.376.31-.735.645-1.092.982.372-14.215 1.03-32.76 2.196-53.57 5.001 7.961 14.772 16.962 33.576 24.477a6 6 0 002.225.43l.01-.049.016.047a5.975 5.975 0 003.475-1.113c31.211-22.215 29.766-41.973 27.694-49.435-2.695-9.717-10.876-16.738-20.356-17.473-6.731-.523-12.861 2.148-17.377 7.323-5.607-3.965-12.192-5.113-18.617-3.013-3.197 1.045-6.041 2.826-8.408 5.124 1.3-16.789 2.943-34.235 5.02-51.484 3.33 6.274 8.432 13.266 16.045 20.876a5.983 5.983 0 004.23 1.755v.005c.422 0 .85-.045 1.277-.137 37.441-8.119 43.897-26.85 44.935-34.525 1.351-9.99-3.401-19.666-11.825-24.077-5.983-3.132-12.659-3.094-18.841-.124-3.592-5.847-9.188-9.493-15.918-10.096-4.805-.433-9.545.794-13.61 3.296 1.901-10.76 4.024-21.122 6.397-30.833 5.258 3.079 11.363 5.807 18.26 8.142a5.983 5.983 0 001.924.318l.002-.01.002.007a5.97 5.97 0 003.732-1.307c16.711-13.3 23.218-25.25 25.418-34.194 20.721 1.067 48.774 2.07 84.555 2.424v106.732c-4.479-5.983-11.417-9.616-18.771-9.425-6.754.173-12.571 3.458-16.528 9.066-5.983-3.361-12.647-3.824-18.818-1.076-8.687 3.867-14.044 13.223-13.33 23.279.548 7.727 5.803 26.828 42.653 37.307.549.156 1.101.23 1.645.23l.001-.007.002.005a5.978 5.978 0 003.962-1.496c15.4-13.552 21.553-25.437 23.517-34.664 4.92 7.713 13.546 12.844 23.353 12.844 9.794 0 18.409-5.116 23.332-12.811 1.972 9.223 8.13 21.096 23.512 34.632a5.972 5.972 0 003.961 1.496l.043-.113.016.115c.543 0 1.096-.074 1.643-.23 36.851-10.479 42.105-29.58 42.653-37.307.714-10.057-4.643-19.412-13.33-23.279-6.186-2.754-12.864-2.283-18.857 1.098-3.957-5.622-9.78-8.914-16.543-9.088-7.348-.206-14.269 3.419-18.746 9.385V88.747c35.77-.354 63.816-1.355 84.535-2.423 2.202 8.945 8.712 20.895 25.42 34.193a5.979 5.979 0 003.732 1.307l.002-.007.002.01c.639 0 1.287-.103 1.925-.318 6.912-2.341 13.006-5.085 18.267-8.175 2.373 9.725 4.5 20.102 6.405 30.879zm-15.953 53.032c-18.972-4.73-30.99-13.452-32.37-23.651-.781-5.779 2.199-10.111 5.499-11.838 3.671-1.926 7.889-.973 11.878 2.672l.004-.004a5.961 5.961 0 002.509 1.371 6 6 0 007.335-4.266c1.383-5.223 4.416-8.303 8.543-8.673 3.717-.329 8.562 1.698 11.031 6.982 4.359 9.325-1.032 23.164-14.429 37.407zm22.459 58.513c.331 10.285-10.071 20.878-27.991 28.688-15.569-11.821-23.176-24.572-20.426-34.489 1.56-5.621 6.006-8.428 9.721-8.715 4.06-.312 7.523 2.142 9.758 6.916a5.967 5.967 0 001.859 2.471 6 6 0 008.422-1.029c3.328-4.256 7.33-5.893 11.27-4.605 3.541 1.157 7.198 4.933 7.387 10.763zm-349.022 0c.188-5.83 3.846-9.605 7.388-10.764 3.938-1.287 7.939.35 11.269 4.605l.014-.011a5.973 5.973 0 002.254 1.778 6.002 6.002 0 007.941-2.99c2.229-4.922 5.734-7.455 9.861-7.135 3.715.287 8.162 3.094 9.721 8.715 2.752 9.918-4.859 22.675-20.438 34.499-17.931-7.811-28.341-18.408-28.01-28.697zm8.075-95.92c2.471-5.283 7.318-7.312 11.031-6.982 4.127.37 7.161 3.45 8.543 8.673l.021-.005c.239.909.669 1.78 1.347 2.523a6 6 0 008.477.381c3.988-3.645 8.205-4.594 11.877-2.674 3.3 1.729 6.28 6.061 5.498 11.84-1.379 10.199-13.394 18.92-32.363 23.65-13.399-14.243-18.788-28.081-14.431-37.406zm114.11 82.297c-18.636-5.925-30.077-15.394-30.807-25.66-.412-5.818 2.837-9.953 6.24-11.467 3.785-1.686 7.934-.471 11.684 3.422l.006-.006a5.962 5.962 0 002.419 1.531 5.998 5.998 0 007.591-3.793c1.711-5.123 4.935-8.006 9.076-8.111 3.73-.084 8.436 2.238 10.566 7.668 3.757 9.582-2.501 23.051-16.775 36.416zm87.91-36.416c2.13-5.43 6.852-7.752 10.565-7.668 4.142.105 7.364 2.988 9.075 8.111l.078-.026c.295.899.781 1.748 1.51 2.45a6.001 6.001 0 008.483-.156c3.749-3.893 7.899-5.107 11.684-3.422 3.403 1.514 6.653 5.648 6.24 11.467-.728 10.274-12.188 19.749-30.847 25.673-14.284-13.369-20.547-26.844-16.788-36.429z" fill="#751c35"/></svg>