<svg viewBox="-16 0 480 480" xmlns="http://www.w3.org/2000/svg" fill="#030104">
    <path d="M343.945 472h-240V48l48-40h152l40 40zm0 0" fill="#3b869e"/>
    <path d="M401.578 220.95l11.313-11.313 1.414 1.414-11.313 11.316zm0 0"/>
    <path d="M103.945 48l-56 48-40 216 96 96zm0 0M343.945 48l56 48 40 216-96 96zm0 0" fill="#69b0bb"/>
    <g fill="#cbcbcb">
        <path d="M416.445 185.3c-17-4.8-34.597 5.098-39.398 22.098s5.098 34.602 22.098 39.403c9.5 2.699 19.8.8 27.703-5.102zm0 0M36.633 263.996l11.312-11.312 11.313 11.312-11.313 11.313zm0 0"/>
        <path d="M22.547 233.398l-9.3 50.102c10.698 19.2 34.898 26.2 54.1 15.5 3.2-1.8 6.2-4.102 8.798-6.7 15.703-15.5 15.902-40.698.402-56.402-14.5-14.898-38.102-15.898-54-2.5zM64.945 281c-9.398 9.398-24.597 9.398-33.898 0s-9.402-24.602 0-33.898c9.398-9.403 24.598-9.403 33.898 0 9.301 9.296 9.301 24.5 0 33.898zm0 0"/>
    </g>
    <path d="M175.945 336h96v136h-96zm0 0" fill="#428dc5"/>
    <path d="M183.945 64l56 144h-56zm0 0" fill="#277baa"/>
    <path d="M231.945 88l-32-80h-40l51.2 128zm0 0" fill="#b9b9b9"/>
    <path d="M271.945 48l-64 160h64zm0 0" fill="#428dc5"/>
    <path d="M207.945 208h-40l80-200h40zm0 0" fill="#cdcdcd"/>
    <path d="M263.945 8h32v464h-32zm0 0M151.945 8h32v464h-32zm0 0" fill="#1f6c8c"/>
    <path d="M103.945 208h240v128h-240zm0 0" fill="#176177"/>
    <path d="M183.945 408l48 64h-48zm0 0" fill="#1f6c8c"/>
    <path d="M36.633 263.996l11.312-11.312 11.313 11.312-11.313 11.313zm0 0" fill="#030104"/>
    <path fill="#030104"
          d="M2.246 317.7l93.7 93.698V472c0 4.398 3.6 8 8 8h240c4.402 0 8-3.602 8-8v-60.7l93.699-93.698c1.902-1.903 2.703-4.5 2.203-7.102l-40-216c-.301-1.8-1.301-3.398-2.703-4.602l-55.797-47.796L309.547 2.3c-1.5-1.5-3.5-2.301-5.7-2.301H151.946c-1 0-2 .2-2.898.602-.3.199-.602.296-.902.5-.399.199-.899.398-1.297.699l-48 40h-.102l-56 48c-1.398 1.199-2.3 2.8-2.7 4.597L11.849 247.2c-2.801 6.102-4 12.801-3.602 19.403L.145 310.5c-.5 2.602.3 5.3 2.101 7.2zm407.399-125.5l3.203 17.3-4.903-4.898-11.3 11.398 11.3 11.3 6.903-6.902 3.199 17.301c-12 5.5-26.3.301-31.8-11.8A23.981 23.981 0 01390.944 199c5-4.8 11.801-7.3 18.7-6.8zm-57.7 143.8V65.398l40.602 34.801 14 75.801c-22.102.5-39.602 18.8-39 40.898.598 22.102 18.8 39.602 40.898 39 4.301-.097 8.5-.898 12.5-2.296l10.301 55.597-79.3 79.5zm-176 72v56h-16V344h16zm16 56v-32l24 32zm64 0h-20l-44-58.7V344h64zm32 0h-16V344h16zm48-56v56h-32V344h32zm-32-388.7l32 32V200h-32zm-32 48.598V16h16v184h-16zM236.145 16l-12.2 30.5L211.746 16zm-44.2 0h2.602l20.8 52-8.8 22.102-2.5 6.296-12-30V16zm0 93.5l3.403 8.5-3.403 8.5zm0 60L253.348 16h2.597v50.5L202.547 200h-10.602zm64-60V200h-36.199zm-96-93.5h16v184h-16zm-48 35.7l32-26.7v175h-32zm0 164.3h224v49.602h-65.5a27.451 27.451 0 001.5-8c0-13.301-10.699-24-24-24-9.199 0-18 4.097-24 11.097-6-7-14.8-11-24-11.097-13.3 0-24 10.699-24 24 0 2.699.5 5.398 1.5 8h-65.5zm144 41.602c0 4.398-3.597 8-8 8h-16c0-8.801 7.2-16 16-16 4.403 0 8 3.597 8 8zm-40 8h-16c-4.398 0-8-3.602-8-8 0-4.403 3.602-8 8-8 8.801 0 16 7.199 16 16zm-104 16h97.7c-2.7 6.199-6.2 12.199-10.297 17.597-2.703 3.5-2 8.602 1.597 11.2 3.5 2.703 8.602 2 11.2-1.598 4.703-6.301 8.601-13 11.8-20.2 3.2 7.098 7.102 13.899 11.801 20.098 2.7 3.5 7.7 4.2 11.2 1.602 3.5-2.602 4.199-7.7 1.6-11.2-4.1-5.402-7.5-11.402-10.3-17.601h97.7V328h-224zm0 126.398v-64h32v120h-32zm-84.8-155.8c6.5-11.598 21.203-15.7 32.8-9.098 11.602 6.597 15.7 21.199 9.102 32.796-6.5 11.602-21.2 15.704-32.8 9.102-6.5-3.7-10.9-10.102-12-17.398zm-7.399 40.1c15.602 15.598 40.899 15.598 56.602 0 15.699-15.6 15.597-40.902 0-56.6-11.703-11.7-29.5-15-44.602-8.302l23.602-127.296 40.597-34.704V388.7l-79.398-79.398zm0 0"/>
</svg>
