<svg xmlns="http://www.w3.org/2000/svg" viewBox="0 0 24.547 24.547"><g><path d="M5.285 24.082a.423.423 0 01-.298-.12L.121 19.083a.415.415 0 010-.585l4.866-4.885a.417.417 0 01.71.295v3.021h13.335a.67.67 0 00.67-.668v-3.4c0-.111.043-.216.119-.295l3.256-3.269a.418.418 0 01.712.295v7.391c0 2.64-1.395 4.034-4.033 4.034H5.698v2.652a.421.421 0 01-.413.413z"/><path d="M1.171 15.378a.415.415 0 01-.159-.033.411.411 0 01-.258-.383v-7.39c0-2.641 1.392-4.033 4.033-4.033h14.064V.88c0-.165.101-.317.256-.385a.418.418 0 01.455.092l4.864 4.875a.416.416 0 010 .588l-4.864 4.882a.415.415 0 01-.71-.295V7.623H5.508c-.367 0-.664.3-.664.669v3.401a.42.42 0 01-.124.296l-3.258 3.265a.402.402 0 01-.291.124z"/></g></svg>
