<svg xmlns="http://www.w3.org/2000/svg" viewBox="0 0 458.322 458.322"><path d="M458.259 218.472c1.013-9.148-10.383-14.26-16.473-7.359-11.856 13.435-30.224 26.417-55.375 22.377-35.435-5.692-73.327-62.533-81.419-69.916-27.761-25.329-55.998-12.612-72.457 10.048a45.097 45.097 0 00-3.374 5.429 45.02 45.02 0 00-3.374-5.429c-16.459-22.66-44.696-35.377-72.457-10.048-8.092 7.383-45.984 64.224-81.419 69.916-25.152 4.04-43.52-8.942-55.375-22.377-6.09-6.901-17.486-1.789-16.473 7.359 2.909 26.256 14.129 61.833 51.261 81.185 54.98 28.653 129.461-16.735 161.608-54.023 6.798-7.885 12.482-16.471 16.229-25.286 3.746 8.814 9.43 17.4 16.229 25.286 32.147 37.288 106.628 82.677 161.608 54.023 37.132-19.352 48.352-54.929 51.261-81.185z"/></svg>